<svg xmlns="http://www.w3.org/2000/svg" width="121.072" height="45.153" viewBox="0 0 121.072 45.153"><defs><style>.a{fill:#f5b460;}.b{fill:#e69955;}.c{fill:#d48a48;}</style></defs><g transform="translate(0 0)"><g transform="translate(0 0)"><path class="a" d="M242.915,318.691H141.467s22.71-37.295,50.724-37.295S242.915,318.691,242.915,318.691Z" transform="translate(-122.969 -281.396)"/><path class="b" d="M304.2,281.4a32.515,32.515,0,0,0-4.513.324c25.9,3.623,46.211,36.971,46.211,36.971h9.026S332.218,281.4,304.2,281.4Z" transform="translate(-234.982 -281.396)"/><path class="b" d="M117.417,414.109H3.655c-2.019,0-3.655-2.021-3.655-4.514v0c0-2.493,1.636-4.514,3.655-4.514H117.417c2.019,0,3.655,2.021,3.655,4.514v0C121.072,412.088,119.436,414.109,117.417,414.109Z" transform="translate(0 -368.956)"/><path class="c" d="M473.434,405.079h-7.792c2.152,0,3.9,2.022,3.9,4.515s-1.744,4.515-3.9,4.515h7.792c2.151,0,3.9-2.022,3.9-4.515S475.585,405.079,473.434,405.079Z" transform="translate(-356.257 -368.956)"/><path class="a" d="M103.284,337.711H23.179s17.932-29.448,40.052-29.448S103.284,337.711,103.284,337.711Z" transform="translate(-21.617 -300.416)"/><path class="b" d="M149.377,308.262a25.975,25.975,0,0,0-4.513.406c20,3.522,35.539,29.043,35.539,29.043h9.026s-17.932-29.448-40.052-29.448Z" transform="translate(-107.762 -300.416)"/></g></g></svg>