<svg xmlns="http://www.w3.org/2000/svg" width="69.806" height="66.196" viewBox="0 0 69.806 66.196"><defs><style>.a{fill:#d1d4d1;}.b{fill:#bdc3c7;}.c{fill:#e6e7e8;}.d{fill:#95a5a5;}.e{fill:#7f8c8d;}</style></defs><g transform="translate(0 -13.241)"><path class="a" d="M69.806,110.345v30.089L25.275,163.3,0,150.062V119.973Z" transform="translate(0 -83.865)"/><path class="b" d="M25.275,194.205v30.089L0,211.055V180.966Z" transform="translate(0 -144.857)"/><path class="c" d="M69.806,26.48,25.275,49.348,0,36.109,44.532,13.241Z" transform="translate(0 0)"/><path class="d" d="M91.66,125.612l-.132.253v14.443l-.229.457h-.012l-14.575-7.631,14.8-7.607Z" transform="translate(-66.253 -96.978)"/><path class="e" d="M198.253,134.089l-14.3,7.342-.253-.132.229-.457V126.4l.132-.253h.012Z" transform="translate(-158.656 -97.511)"/><path class="d" d="M233.784,50.666l-.132.253V65.362l-.229.457h-.012l-14.575-7.631,14.8-7.606Z" transform="translate(-189 -32.25)"/><path class="e" d="M340.377,59.143l-14.3,7.342-.253-.132.229-.457V51.453l.132-.253h.012Z" transform="translate(-281.403 -32.784)"/></g></svg>