<svg xmlns="http://www.w3.org/2000/svg" xmlns:xlink="http://www.w3.org/1999/xlink" width="62.065" height="71.291" viewBox="0 0 62.065 71.291"><defs><style>.a{fill:#fff;stroke:#707070;}.b{clip-path:url(#a);}.c{fill:#d1d4d1;}.d{fill:#bdc3c7;}.e{fill:#e6e7e8;}.f{fill:#95a5a5;}.g{fill:#7f8c8d;}</style><clipPath id="a"><path class="a" d="M11426.558,7752.441l31.032,16.535v37.264l-27.319,17.493-34.746-19.531v-39.059Z" transform="translate(-10676 -7243)"/></clipPath></defs><g class="b" transform="translate(-719.524 -509.441)"><g transform="translate(724.451 498.966)"><path class="c" d="M80.136,110.345v34.541L29.015,171.138,0,155.94V121.4Z" transform="translate(0 -95.147)"/><path class="d" d="M29.015,196.164v34.541L0,215.507V180.966Z" transform="translate(0 -154.714)"/><path class="e" d="M80.136,28.439,29.015,54.691,0,39.493,51.121,13.241Z" transform="translate(0 -13.241)"/><path class="f" d="M93.872,125.625l-.152.29v16.58l-.262.525h-.014l-16.732-8.76,16.994-8.732Z" transform="translate(-64.705 -107.953)"/><path class="g" d="M200.406,135.265l-16.414,8.428-.29-.152.262-.525v-16.58l.152-.29h.014Z" transform="translate(-154.95 -108.475)"/><path class="f" d="M236,50.679l-.152.29v16.58l-.263.525h-.014l-16.732-8.76,16.994-8.732Z" transform="translate(-184.585 -44.738)"/><path class="g" d="M342.53,60.319l-16.414,8.428-.29-.152.263-.525V51.49l.152-.29h.014Z" transform="translate(-274.829 -45.259)"/></g></g></svg>