<svg xmlns="http://www.w3.org/2000/svg" width="86" height="70" viewBox="0 0 86 70"><defs><style>.a{fill:#e9e9e9;}</style></defs><g transform="translate(-747 -1421)"><g transform="translate(747 1421)"><circle class="a" cx="3" cy="3" r="3"/></g><g transform="translate(763 1421)"><circle class="a" cx="3" cy="3" r="3"/></g><g transform="translate(779 1421)"><circle class="a" cx="3" cy="3" r="3"/></g><g transform="translate(795 1421)"><circle class="a" cx="3" cy="3" r="3"/></g><g transform="translate(811 1421)"><circle class="a" cx="3" cy="3" r="3"/></g><g transform="translate(827 1421)"><circle class="a" cx="3" cy="3" r="3"/></g><g transform="translate(747 1437)"><circle class="a" cx="3" cy="3" r="3"/></g><g transform="translate(763 1437)"><circle class="a" cx="3" cy="3" r="3"/></g><g transform="translate(779 1437)"><circle class="a" cx="3" cy="3" r="3"/></g><g transform="translate(795 1437)"><circle class="a" cx="3" cy="3" r="3"/></g><g transform="translate(811 1437)"><circle class="a" cx="3" cy="3" r="3"/></g><g transform="translate(827 1437)"><circle class="a" cx="3" cy="3" r="3"/></g><g transform="translate(747 1453)"><circle class="a" cx="3" cy="3" r="3"/></g><g transform="translate(763 1453)"><circle class="a" cx="3" cy="3" r="3"/></g><g transform="translate(779 1453)"><circle class="a" cx="3" cy="3" r="3"/></g><g transform="translate(795 1453)"><circle class="a" cx="3" cy="3" r="3"/></g><g transform="translate(811 1453)"><circle class="a" cx="3" cy="3" r="3"/></g><g transform="translate(827 1453)"><circle class="a" cx="3" cy="3" r="3"/></g><g transform="translate(747 1469)"><circle class="a" cx="3" cy="3" r="3"/></g><g transform="translate(763 1469)"><circle class="a" cx="3" cy="3" r="3"/></g><g transform="translate(779 1469)"><circle class="a" cx="3" cy="3" r="3"/></g><g transform="translate(795 1469)"><circle class="a" cx="3" cy="3" r="3"/></g><g transform="translate(811 1469)"><circle class="a" cx="3" cy="3" r="3"/></g><g transform="translate(827 1469)"><circle class="a" cx="3" cy="3" r="3"/></g><g transform="translate(747 1485)"><circle class="a" cx="3" cy="3" r="3"/></g><g transform="translate(763 1485)"><circle class="a" cx="3" cy="3" r="3"/></g><g transform="translate(779 1485)"><circle class="a" cx="3" cy="3" r="3"/></g><g transform="translate(795 1485)"><circle class="a" cx="3" cy="3" r="3"/></g><g transform="translate(811 1485)"><circle class="a" cx="3" cy="3" r="3"/></g><g transform="translate(827 1485)"><circle class="a" cx="3" cy="3" r="3"/></g></g></svg>