<svg xmlns="http://www.w3.org/2000/svg" xmlns:xlink="http://www.w3.org/1999/xlink" width="466" height="398" viewBox="0 0 466 398"><defs><style>.a{fill:rgba(98,113,120,0.08);}.b{fill:#fff;}.c,.j{fill:#919191;font-family:Roboto-Regular, Roboto;}.c{font-size:14px;}.d{font-size:24px;font-family:Poppins-SemiBold, Poppins;font-weight:600;}.e{fill:#d1d4d1;}.f{fill:#bdc3c7;}.g{fill:#e6e7e8;}.h{fill:#95a5a5;}.i{fill:#7f8c8d;}.j{font-size:12px;}.k{font-size:13px;font-family:Poppins-Medium, Poppins;font-weight:500;}.l{fill:#45b549;}.m{fill:#009549;}.n{fill:#f0c191;}.o{fill:#ddb087;}.p{fill:#c49b7a;}.q{fill:#2f3a5a;}.r{fill:#2a354f;}.s{fill:#477ea8;}.t{fill:#3f7393;}.u{fill:url(#g);}.v{fill:url(#h);}.w{filter:url(#e);}.x{filter:url(#c);}.y{filter:url(#a);}</style><filter id="a" x="54.5" y="106" width="358" height="186" filterUnits="userSpaceOnUse"><feOffset input="SourceAlpha"/><feGaussianBlur stdDeviation="12.5" result="b"/><feFlood flood-opacity="0.051"/><feComposite operator="in" in2="b"/><feComposite in="SourceGraphic"/></filter><filter id="c" x="80.5" y="232" width="306" height="166" filterUnits="userSpaceOnUse"><feOffset input="SourceAlpha"/><feGaussianBlur stdDeviation="12.5" result="d"/><feFlood flood-opacity="0.051"/><feComposite operator="in" in2="d"/><feComposite in="SourceGraphic"/></filter><filter id="e" x="80.5" y="0" width="306" height="166" filterUnits="userSpaceOnUse"><feOffset input="SourceAlpha"/><feGaussianBlur stdDeviation="12.5" result="f"/><feFlood flood-opacity="0.051"/><feComposite operator="in" in2="f"/><feComposite in="SourceGraphic"/></filter><linearGradient id="g" x1="0.5" y1="1" x2="0.5" gradientUnits="objectBoundingBox"><stop offset="0" stop-color="#f1f1f1" stop-opacity="0"/><stop offset="0.69" stop-color="#f3f3f3"/><stop offset="1" stop-color="#eee"/></linearGradient><linearGradient id="h" x1="0.5" x2="0.5" y2="1" gradientUnits="objectBoundingBox"><stop offset="0" stop-color="#f4f4f4" stop-opacity="0"/><stop offset="0.69" stop-color="#f4f4f4"/><stop offset="1" stop-color="#f5f5f5"/></linearGradient></defs><g transform="translate(-686 -87.5)"><g transform="translate(-30 1)"><g transform="translate(-355 -2)"><rect class="a" width="50" height="23" rx="3" transform="translate(1098 376)"/><rect class="a" width="50" height="23" rx="3" transform="translate(1150 376)"/><rect class="a" width="50" height="23" rx="3" transform="translate(1202 376)"/><rect class="a" width="50" height="23" rx="3" transform="translate(1254 376)"/><rect class="a" width="50" height="23" rx="3" transform="translate(1306 376)"/><rect class="a" width="50" height="23" rx="3" transform="translate(1098 326)"/><rect class="a" width="50" height="23" rx="3" transform="translate(1150 326)"/><rect class="a" width="50" height="23" rx="3" transform="translate(1202 326)"/><rect class="a" width="50" height="23" rx="3" transform="translate(1254 326)"/><rect class="a" width="50" height="23" rx="3" transform="translate(1306 326)"/><g transform="translate(0 -50)"><rect class="a" width="50" height="23" rx="3" transform="translate(1098 326)"/><rect class="a" width="50" height="23" rx="3" transform="translate(1150 326)"/><rect class="a" width="50" height="23" rx="3" transform="translate(1202 326)"/><rect class="a" width="50" height="23" rx="3" transform="translate(1254 326)"/><rect class="a" width="50" height="23" rx="3" transform="translate(1306 326)"/></g><rect class="a" width="50" height="23" rx="3" transform="translate(1071 351)"/><rect class="a" width="50" height="23" rx="3" transform="translate(1123 351)"/><rect class="a" width="50" height="23" rx="3" transform="translate(1175 351)"/><rect class="a" width="50" height="23" rx="3" transform="translate(1227 351)"/><rect class="a" width="50" height="23" rx="3" transform="translate(1279 351)"/><rect class="a" width="50" height="23" rx="3" transform="translate(1331 351)"/><rect class="a" width="50" height="23" rx="3" transform="translate(1071 301)"/><rect class="a" width="50" height="23" rx="3" transform="translate(1123 301)"/><rect class="a" width="50" height="23" rx="3" transform="translate(1175 301)"/><rect class="a" width="50" height="23" rx="3" transform="translate(1227 301)"/><rect class="a" width="50" height="23" rx="3" transform="translate(1279 301)"/><rect class="a" width="50" height="23" rx="3" transform="translate(1331 301)"/></g><g transform="translate(-355 -102)"><rect class="a" width="50" height="23" rx="3" transform="translate(1098 326)"/><rect class="a" width="50" height="23" rx="3" transform="translate(1150 326)"/><rect class="a" width="50" height="23" rx="3" transform="translate(1202 326)"/><rect class="a" width="50" height="23" rx="3" transform="translate(1254 326)"/><rect class="a" width="50" height="23" rx="3" transform="translate(1306 326)"/><g transform="translate(0 -50)"><rect class="a" width="50" height="23" rx="3" transform="translate(1098 326)"/><rect class="a" width="50" height="23" rx="3" transform="translate(1150 326)"/><rect class="a" width="50" height="23" rx="3" transform="translate(1202 326)"/><rect class="a" width="50" height="23" rx="3" transform="translate(1254 326)"/><rect class="a" width="50" height="23" rx="3" transform="translate(1306 326)"/></g><rect class="a" width="50" height="23" rx="3" transform="translate(1071 351)"/><rect class="a" width="50" height="23" rx="3" transform="translate(1123 351)"/><rect class="a" width="50" height="23" rx="3" transform="translate(1175 351)"/><rect class="a" width="50" height="23" rx="3" transform="translate(1227 351)"/><rect class="a" width="50" height="23" rx="3" transform="translate(1279 351)"/><rect class="a" width="50" height="23" rx="3" transform="translate(1331 351)"/><rect class="a" width="50" height="23" rx="3" transform="translate(1071 301)"/><rect class="a" width="50" height="23" rx="3" transform="translate(1123 301)"/><rect class="a" width="50" height="23" rx="3" transform="translate(1175 301)"/><rect class="a" width="50" height="23" rx="3" transform="translate(1227 301)"/><rect class="a" width="50" height="23" rx="3" transform="translate(1279 301)"/><rect class="a" width="50" height="23" rx="3" transform="translate(1331 301)"/></g><rect class="a" width="50" height="23" rx="3" transform="translate(1003 374)"/><rect class="a" width="50" height="23" rx="3" transform="translate(1003 324)"/><rect class="a" width="50" height="23" rx="3" transform="translate(1003 274)"/><rect class="a" width="50" height="23" rx="3" transform="translate(1028 349)"/><rect class="a" width="50" height="23" rx="3" transform="translate(1028 299)"/><rect class="a" width="50" height="23" rx="3" transform="translate(1003 224)"/><rect class="a" width="50" height="23" rx="3" transform="translate(1003 174)"/><rect class="a" width="50" height="23" rx="3" transform="translate(1028 249)"/><rect class="a" width="50" height="23" rx="3" transform="translate(1028 199)"/><g transform="translate(52)"><rect class="a" width="50" height="23" rx="3" transform="translate(1003 374)"/><rect class="a" width="50" height="23" rx="3" transform="translate(1003 324)"/><rect class="a" width="50" height="23" rx="3" transform="translate(1003 274)"/><rect class="a" width="50" height="23" rx="3" transform="translate(1028 349)"/><rect class="a" width="50" height="23" rx="3" transform="translate(1028 299)"/><rect class="a" width="50" height="23" rx="3" transform="translate(1003 224)"/><rect class="a" width="50" height="23" rx="3" transform="translate(1003 174)"/><rect class="a" width="50" height="23" rx="3" transform="translate(1028 249)"/><rect class="a" width="50" height="23" rx="3" transform="translate(1028 199)"/></g><g transform="translate(104)"><rect class="a" width="50" height="23" rx="3" transform="translate(1003 374)"/><rect class="a" width="50" height="23" rx="3" transform="translate(1003 324)"/><rect class="a" width="50" height="23" rx="3" transform="translate(1003 274)"/><rect class="a" width="50" height="23" rx="3" transform="translate(1028 349)"/><rect class="a" width="50" height="23" rx="3" transform="translate(1028 299)"/><rect class="a" width="50" height="23" rx="3" transform="translate(1003 224)"/><rect class="a" width="50" height="23" rx="3" transform="translate(1003 174)"/><rect class="a" width="50" height="23" rx="3" transform="translate(1028 249)"/><rect class="a" width="50" height="23" rx="3" transform="translate(1028 199)"/></g></g><g transform="translate(-628 1)"><g transform="translate(101 -29)"><g class="y" transform="matrix(1, 0, 0, 1, 1213, 115.5)"><rect class="b" width="283" height="111" rx="10" transform="translate(92 143.5)"/></g><g transform="translate(-13 4)"><text class="c" transform="translate(1344 312)"><tspan x="0" y="13">Nuestra capacidad de producción en </tspan><tspan x="0" y="34">unidades de blocks al mes.</tspan></text><text class="d" transform="translate(1385 297)"><tspan x="0" y="0">+3,500,000</tspan></text><g transform="translate(1344 262.759)"><path class="e" d="M25.712,110.345v11.083l-16.4,8.423L0,124.974V113.892Z" transform="translate(0 -92.227)"/><path class="f" d="M9.31,185.842v11.083L0,192.049V180.966Z" transform="translate(0 -159.302)"/><path class="g" d="M25.712,18.118,9.31,26.541,0,21.664l16.4-8.423Z" transform="translate(0 0)"/><path class="h" d="M82.218,125.559l-.049.093v5.32l-.084.168h0l-5.369-2.811,5.453-2.8Z" transform="translate(-72.86 -106.648)"/><path class="i" d="M189.062,129.072l-5.267,2.7-.093-.049.084-.168v-5.32l.049-.093h0Z" transform="translate(-174.477 -107.235)"/><path class="h" d="M224.342,50.613l-.049.093v5.32l-.084.168h0l-5.369-2.811,5.453-2.8Z" transform="translate(-207.846 -35.466)"/><path class="i" d="M331.186,54.126l-5.267,2.7-.093-.049.084-.168v-5.32l.049-.093h0Z" transform="translate(-309.463 -36.053)"/></g></g></g><g transform="translate(127 97.198)"><g class="x" transform="matrix(1, 0, 0, 1, 1187, -10.7)"><rect class="b" width="231" height="91" rx="10" transform="translate(118 269.5)"/></g><g transform="translate(1322.325 269.244)"><text class="j" transform="translate(-0.325 32.559)"><tspan x="0" y="11">Cumplimos la ley 64-00, somos una </tspan><tspan x="0" y="30">empresa socialmente responsable.</tspan></text><text class="k" transform="translate(33.675 18.558)"><tspan x="0" y="0">Ley Ambiental</tspan></text><g transform="translate(-15.318 3.558)"><path class="l" d="M93.222,5.348c6.236-.686,8.263-4.631,8.27-4.631a.4.4,0,0,1,.743.079c2.073,7.03.942,11.878-1.438,14.753a8.951,8.951,0,0,1-3.438,2.565,8.565,8.565,0,0,1-3.9.662,6.866,6.866,0,0,1-5.972-3.989,6.647,6.647,0,0,1-.531-1.969,6.77,6.77,0,0,1,.763-3.947,6.55,6.55,0,0,1,3.147-2.893,7.925,7.925,0,0,1,2.36-.629Z" transform="translate(-67.338 -0.473)"/><path class="m" d="M34.109.392a.4.4,0,1,1,.8.068c0,.02-.351,4.631-4.852,9.3l-.042.044a23.4,23.4,0,0,1-3.464,2.924l2.7.5a.4.4,0,0,1-.135.789l-3.528-.662c-3.217,2.038-8.671,3.919-9.147,8.358a.4.4,0,0,1-.8-.079c.569-5.321,5.976-6.691,9.624-9.017l.051-.033a23.178,23.178,0,0,0,4.02-3.222L29.019,6.2a.4.4,0,1,1,.8-.107c0,.009,0,.018,0,.027l.243,2.457A15.266,15.266,0,0,0,34.109.392Z" transform="translate(0 0)"/></g></g></g><g transform="translate(127 -134.802)"><g class="w" transform="matrix(1, 0, 0, 1, 1187, 221.3)"><rect class="b" width="231" height="91" rx="10" transform="translate(118 37.5)"/></g><g transform="translate(1322.325 269.244)"><text class="j" transform="translate(-0.325 32.559)"><tspan x="0" y="11">Mantenemos altos niveles de </tspan><tspan x="0" y="30">honestidad y ética profesional.</tspan></text><text class="k" transform="translate(38.675 18.558)"><tspan x="0" y="0">Integridad como base</tspan></text><g transform="translate(0.334 -22.049)"><path class="n" d="M25.662,44.217l-8.2-7.892-5.3-.18L10.2,35.478,8.551,34.79l-2.71,6.548s3.521.737,4.406,1.967,6.939,5.174,8.667,5.719,2-.666,2-.666c1.719,1.048,1.947-.8,1.947-.8,2.36.683,2.106-1.079,2.106-1.079a1.124,1.124,0,0,0,1.165-1.009,1.5,1.5,0,0,0-.471-1.252Z" transform="translate(-5.036 -4.79)"/><g transform="translate(6.416 30.269)"><path class="o" d="M58.885,76.219l-.123-.118a1.39,1.39,0,0,1,.153.825,1.124,1.124,0,0,1-1.166,1.008s.255,1.762-2.1,1.078c0,0-.23,1.85-1.947.8,0,0-.274,1.21-2,.665a17.787,17.787,0,0,1-2.968-1.542v.277a20.241,20.241,0,0,0,3.409,1.812c1.727.545,2-.667,2-.667,1.72,1.048,1.947-.8,1.947-.8,2.36.681,2.107-1.08,2.107-1.08a1.122,1.122,0,0,0,1.164-1.008,1.489,1.489,0,0,0-.47-1.252Z" transform="translate(-44.676 -67.061)"/><path class="o" d="M30.767,74.523s.569-.955,1.3-.9a1.016,1.016,0,0,1,.9,1.452s1.03-1.092,1.886-.342a1.1,1.1,0,0,1,.343,1.221s.608-.789,1.248-.378a1.008,1.008,0,0,1,.248,1.36s1.072-.381,1.387.608a1.294,1.294,0,0,1-.312,1.172,1.156,1.156,0,0,1-1.883-.522s-1.735.308-1.69-1.037a1.2,1.2,0,0,1-1.737-1.077,1.77,1.77,0,0,1-1.328-.447,1.168,1.168,0,0,1-.361-1.11Z" transform="translate(-30.742 -65.138)"/><path class="o" d="M59.22,36.613l-1.685.82a.772.772,0,0,1-.673,0c-.876-.421-3.225-1.506-4.047-1.449-1.018.07-2.787,1.526-3.583,1.581-.74.051-.275,2.013-1.16,3.428a.621.621,0,0,0,.009.7,1.442,1.442,0,0,0,2.344.284c1.594-1.4,1.528-2.374,1.528-2.374L58.5,45.391l1.747-.929,3.062-1.411Z" transform="translate(-44.086 -35.983)"/></g><path class="p" d="M96.695,64.1l-2.749,1.266-1.748.93-.531.274.684.6,1.748-.929,3.062-1.412Z" transform="translate(-71.522 -27.493)"/><rect class="q" width="5.3" height="8.817" rx="2.35" transform="matrix(0.883, -0.469, 0.469, 0.883, 19.698, 31.093)"/><rect class="q" width="5.3" height="8.817" rx="2.35" transform="matrix(0.883, -0.469, 0.469, 0.883, 19.698, 31.093)"/><path class="r" d="M98.69,44.253l-3.746,1.991a.529.529,0,0,1-.716-.22l-3.639-6.85a.528.528,0,0,1,.218-.716l.035-.019,3.387,6.377a.529.529,0,0,0,.716.22l3.711-1.972.253.473A.53.53,0,0,1,98.69,44.253Z" transform="translate(-70.638 -7.616)"/><rect class="s" width="8.817" height="5.3" rx="2.35" transform="translate(-0.659 36.965) rotate(-69.88)"/><path class="t" d="M7.685,37.154,5.015,44.44a.532.532,0,0,1-.679.315L.354,43.294a.526.526,0,0,1-.322-.649.464.464,0,0,0,.121.065l3.982,1.458a.528.528,0,0,0,.679-.315l2.67-7.282a.07.07,0,0,0,.007-.03.522.522,0,0,1,.195.614Z" transform="translate(-0.517 -6.145)"/><path class="o" d="M75.984,72.768a22.7,22.7,0,0,0,3.141,2.789Z" transform="translate(-59.373 -34.21)"/><path class="o" d="M67.386,78.2a22.7,22.7,0,0,0,3.141,2.789Z" transform="translate(-52.712 -38.418)"/><path class="o" d="M59,81.884a22.7,22.7,0,0,0,3.141,2.789Z" transform="translate(-46.216 -41.271)"/><path class="p" d="M54.369,88.331a3.95,3.95,0,0,0-.809,1.26A10.093,10.093,0,0,0,54.369,88.331Z" transform="translate(-42.002 -46.266)"/><path class="p" d="M47.088,84.123a4.239,4.239,0,0,0-.924,1.147A5.617,5.617,0,0,0,47.088,84.123Z" transform="translate(-36.272 -43.006)"/><path class="p" d="M38.881,80.07a4.124,4.124,0,0,0-.5.989A3.2,3.2,0,0,0,38.881,80.07Z" transform="translate(-30.239 -39.866)"/></g></g></g><rect class="u" width="283" height="39" rx="10" transform="translate(1406 110)"/><rect class="v" width="283" height="39" rx="10" transform="translate(1406 424)"/></g></g></svg>