<svg xmlns="http://www.w3.org/2000/svg" width="291" height="242" viewBox="0 0 291 242"><defs><style>.a{fill:rgba(34,48,123,0.04);}.b{fill:#22307b;}</style></defs><circle class="a" cx="117" cy="117" r="117" transform="translate(0 8)"/><g transform="translate(205)"><g transform="translate(80)"><circle class="b" cx="3" cy="3" r="3"/></g><g transform="translate(64)"><circle class="b" cx="3" cy="3" r="3"/></g><g transform="translate(48)"><circle class="b" cx="3" cy="3" r="3"/></g><g transform="translate(32)"><circle class="b" cx="3" cy="3" r="3"/></g><g transform="translate(16)"><circle class="b" cx="3" cy="3" r="3"/></g><circle class="b" cx="3" cy="3" r="3"/><g transform="translate(80 16)"><circle class="b" cx="3" cy="3" r="3"/></g><g transform="translate(64 16)"><circle class="b" cx="3" cy="3" r="3"/></g><g transform="translate(48 16)"><circle class="b" cx="3" cy="3" r="3"/></g><g transform="translate(32 16)"><circle class="b" cx="3" cy="3" r="3"/></g><g transform="translate(16 16)"><circle class="b" cx="3" cy="3" r="3"/></g><g transform="translate(0 16)"><circle class="b" cx="3" cy="3" r="3"/></g><g transform="translate(80 32)"><circle class="b" cx="3" cy="3" r="3"/></g><g transform="translate(64 32)"><circle class="b" cx="3" cy="3" r="3"/></g><g transform="translate(48 32)"><circle class="b" cx="3" cy="3" r="3"/></g><g transform="translate(32 32)"><circle class="b" cx="3" cy="3" r="3"/></g><g transform="translate(16 32)"><circle class="b" cx="3" cy="3" r="3"/></g><g transform="translate(0 32)"><circle class="b" cx="3" cy="3" r="3"/></g><g transform="translate(80 48)"><circle class="b" cx="3" cy="3" r="3"/></g><g transform="translate(64 48)"><circle class="b" cx="3" cy="3" r="3"/></g><g transform="translate(48 48)"><circle class="b" cx="3" cy="3" r="3"/></g><g transform="translate(32 48)"><circle class="b" cx="3" cy="3" r="3"/></g><g transform="translate(16 48)"><circle class="b" cx="3" cy="3" r="3"/></g><g transform="translate(0 48)"><circle class="b" cx="3" cy="3" r="3"/></g><g transform="translate(80 64)"><circle class="b" cx="3" cy="3" r="3"/></g><g transform="translate(64 64)"><circle class="b" cx="3" cy="3" r="3"/></g><g transform="translate(48 64)"><circle class="b" cx="3" cy="3" r="3"/></g><g transform="translate(32 64)"><circle class="b" cx="3" cy="3" r="3"/></g><g transform="translate(16 64)"><circle class="b" cx="3" cy="3" r="3"/></g><g transform="translate(0 64)"><circle class="b" cx="3" cy="3" r="3"/></g><g transform="translate(80 80)"><circle class="b" cx="3" cy="3" r="3"/></g><g transform="translate(64 80)"><circle class="b" cx="3" cy="3" r="3"/></g><g transform="translate(48 80)"><circle class="b" cx="3" cy="3" r="3"/></g><g transform="translate(32 80)"><circle class="b" cx="3" cy="3" r="3"/></g><g transform="translate(16 80)"><circle class="b" cx="3" cy="3" r="3"/></g><g transform="translate(0 80)"><circle class="b" cx="3" cy="3" r="3"/></g></g></svg>