<svg xmlns="http://www.w3.org/2000/svg" width="291" height="242" viewBox="0 0 291 242"><defs><style>.a{fill:rgba(34,48,123,0.04);}.b{fill:#22307b;}</style></defs><g transform="translate(-1276 -1235)"><circle class="a" cx="117" cy="117" r="117" transform="translate(1333 1243)"/><g transform="translate(44 -46)"><g transform="translate(1232 1281)"><circle class="b" cx="3" cy="3" r="3"/></g><g transform="translate(1248 1281)"><circle class="b" cx="3" cy="3" r="3"/></g><g transform="translate(1264 1281)"><circle class="b" cx="3" cy="3" r="3"/></g><g transform="translate(1280 1281)"><circle class="b" cx="3" cy="3" r="3"/></g><g transform="translate(1296 1281)"><circle class="b" cx="3" cy="3" r="3"/></g><g transform="translate(1312 1281)"><circle class="b" cx="3" cy="3" r="3"/></g><g transform="translate(1232 1297)"><circle class="b" cx="3" cy="3" r="3"/></g><g transform="translate(1248 1297)"><circle class="b" cx="3" cy="3" r="3"/></g><g transform="translate(1264 1297)"><circle class="b" cx="3" cy="3" r="3"/></g><g transform="translate(1280 1297)"><circle class="b" cx="3" cy="3" r="3"/></g><g transform="translate(1296 1297)"><circle class="b" cx="3" cy="3" r="3"/></g><g transform="translate(1312 1297)"><circle class="b" cx="3" cy="3" r="3"/></g><g transform="translate(1232 1313)"><circle class="b" cx="3" cy="3" r="3"/></g><g transform="translate(1248 1313)"><circle class="b" cx="3" cy="3" r="3"/></g><g transform="translate(1264 1313)"><circle class="b" cx="3" cy="3" r="3"/></g><g transform="translate(1280 1313)"><circle class="b" cx="3" cy="3" r="3"/></g><g transform="translate(1296 1313)"><circle class="b" cx="3" cy="3" r="3"/></g><g transform="translate(1312 1313)"><circle class="b" cx="3" cy="3" r="3"/></g><g transform="translate(1232 1329)"><circle class="b" cx="3" cy="3" r="3"/></g><g transform="translate(1248 1329)"><circle class="b" cx="3" cy="3" r="3"/></g><g transform="translate(1264 1329)"><circle class="b" cx="3" cy="3" r="3"/></g><g transform="translate(1280 1329)"><circle class="b" cx="3" cy="3" r="3"/></g><g transform="translate(1296 1329)"><circle class="b" cx="3" cy="3" r="3"/></g><g transform="translate(1312 1329)"><circle class="b" cx="3" cy="3" r="3"/></g><g transform="translate(1232 1345)"><circle class="b" cx="3" cy="3" r="3"/></g><g transform="translate(1248 1345)"><circle class="b" cx="3" cy="3" r="3"/></g><g transform="translate(1264 1345)"><circle class="b" cx="3" cy="3" r="3"/></g><g transform="translate(1280 1345)"><circle class="b" cx="3" cy="3" r="3"/></g><g transform="translate(1296 1345)"><circle class="b" cx="3" cy="3" r="3"/></g><g transform="translate(1312 1345)"><circle class="b" cx="3" cy="3" r="3"/></g><g transform="translate(1232 1361)"><circle class="b" cx="3" cy="3" r="3"/></g><g transform="translate(1248 1361)"><circle class="b" cx="3" cy="3" r="3"/></g><g transform="translate(1264 1361)"><circle class="b" cx="3" cy="3" r="3"/></g><g transform="translate(1280 1361)"><circle class="b" cx="3" cy="3" r="3"/></g><g transform="translate(1296 1361)"><circle class="b" cx="3" cy="3" r="3"/></g><g transform="translate(1312 1361)"><circle class="b" cx="3" cy="3" r="3"/></g></g></g></svg>