<svg xmlns="http://www.w3.org/2000/svg" width="16.261" height="16.261" viewBox="0 0 16.261 16.261"><defs><style>.a{fill:none;stroke:#d31821;stroke-linecap:round;stroke-linejoin:round;}</style></defs><g transform="translate(0.5 0.5)"><path class="a" d="M6.815,3h7.63a3.815,3.815,0,0,1,3.815,3.815v7.63a3.815,3.815,0,0,1-3.815,3.815H6.815A3.815,3.815,0,0,1,3,14.446V6.815A3.815,3.815,0,0,1,6.815,3Z" transform="translate(-3 -3)"/><path class="a" d="M18.136,14.539a3.052,3.052,0,1,1-2.571-2.571,3.052,3.052,0,0,1,2.571,2.571Z" transform="translate(-7.454 -7.39)"/><path class="a" d="M26.25,9.75h0" transform="translate(-14.423 -6.316)"/></g></svg>