<svg xmlns="http://www.w3.org/2000/svg" width="20.067" height="14.398" viewBox="0 0 20.067 14.398"><defs><style>.a{fill:none;stroke:#d31821;stroke-linecap:round;stroke-linejoin:round;}</style></defs><g transform="translate(0.5 0.5)"><path class="a" d="M20.167,8.1a2.409,2.409,0,0,0-1.681-1.733A62.41,62.41,0,0,0,11.033,6a57.029,57.029,0,0,0-7.453.4A2.409,2.409,0,0,0,1.9,8.132a25.133,25.133,0,0,0-.4,4.585,25.133,25.133,0,0,0,.4,4.619A2.409,2.409,0,0,0,3.58,19a57.029,57.029,0,0,0,7.453.4,57.029,57.029,0,0,0,7.453-.4,2.409,2.409,0,0,0,1.681-1.733,25.133,25.133,0,0,0,.4-4.55,25.133,25.133,0,0,0-.4-4.619Z" transform="translate(-1.499 -6)"/><path class="a" d="M14.625,18.388l4.983-2.834L14.625,12.72Z" transform="translate(-7.041 -8.837)"/></g></svg>